<?xml version="1.0" standalone="no"?>
<!DOCTYPE svg PUBLIC "-//W3C//DTD SVG 20010904//EN"
 "http://www.w3.org/TR/2001/REC-SVG-20010904/DTD/svg10.dtd">
<svg version="1.0" xmlns="http://www.w3.org/2000/svg"
 width="700.000000pt" height="700.000000pt" viewBox="0 0 700.000000 700.000000"
 preserveAspectRatio="xMidYMid meet">
<metadata>
Created by potrace 1.14, written by Peter Selinger 2001-2017
</metadata>
<g transform="translate(0.000000,700.000000) scale(0.100000,-0.100000)"
fill="#000000" stroke="none">
<path d="M3265 4980 c-196 -35 -319 -75 -449 -145 -22 -13 -60 -33 -83 -46
-72 -38 -214 -150 -293 -229 -126 -126 -232 -278 -306 -437 -45 -99 -100 -282
-118 -398 -16 -103 -15 -378 3 -465 6 -30 13 -69 16 -87 9 -54 70 -233 105
-308 141 -299 385 -551 680 -701 91 -46 251 -108 308 -119 13 -2 31 -6 40 -9
20 -6 58 -13 157 -26 71 -9 336 -6 390 5 17 3 53 10 80 15 84 16 91 18 201 55
139 47 255 109 386 202 76 55 214 183 276 258 56 66 138 194 185 290 42 83
109 265 120 325 3 14 8 41 11 60 3 19 9 49 12 65 3 17 7 102 9 190 4 218 -20
361 -91 552 -173 462 -580 822 -1057 933 -128 29 -142 31 -317 35 -128 3 -188
-1 -265 -15z"/>
</g>
</svg>
